<svg id="SvgjsSvg1000" xmlns="http://www.w3.org/2000/svg" version="1.1" xmlns:xlink="http://www.w3.org/1999/xlink" xmlns:svgjs="http://svgjs.com/svgjs" width="87" height="75" viewBox="0 0 87 75"><title>Forma 1</title><desc>Created with Avocode.</desc><defs id="SvgjsDefs1001"></defs><path id="SvgjsPath1007" d="M242.198 866.147C240.997 864.9480000000001 239.54600000000002 864.3480000000001 237.848 864.3480000000001H164.01800000000003C162.31900000000002 864.3480000000001 160.86900000000003 864.9490000000001 159.66700000000003 866.147C158.46600000000004 867.346 157.86500000000004 868.792 157.86500000000004 870.4870000000001V931.8670000000001C157.86500000000004 933.561 158.46500000000003 935.008 159.66700000000003 936.2070000000001C160.86900000000003 937.4050000000001 162.31900000000002 938.0060000000001 164.01800000000003 938.0060000000001H237.84700000000004C239.54600000000005 938.0060000000001 240.99600000000004 937.4050000000001 242.19800000000004 936.2070000000001C243.39900000000003 935.0080000000002 244.00000000000003 933.5610000000001 244.00000000000003 931.8670000000001V870.4870000000001C244.00000000000003 868.7930000000001 243.39900000000003 867.3460000000001 242.19800000000004 866.147ZM170.17 867.418H188.62699999999998V873.556H170.17ZM164.018 931.867V925.7289999999999H237.848V931.867ZM182.475 904.342C182.475 899.259 184.278 894.919 187.882 891.322C191.488 887.726 195.83700000000002 885.928 200.93200000000002 885.928C206.02800000000002 885.928 210.37800000000001 887.726 213.98200000000003 891.322C217.58700000000002 894.919 219.39000000000001 899.259 219.39000000000001 904.342C219.39000000000001 909.425 217.58700000000002 913.765 213.98200000000003 917.361C210.37800000000001 920.958 206.02800000000002 922.756 200.93200000000002 922.756C195.83700000000002 922.756 191.48800000000003 920.958 187.882 917.361C184.27700000000002 913.765 182.475 909.425 182.475 904.342ZM237.848 882.763H164.01800000000003V876.625H194.973L198.049 870.487H237.848ZM209.632 913.022C212.036 910.624 213.238 907.731 213.238 904.3420000000001C213.238 900.9530000000001 212.036 898.0600000000001 209.632 895.6630000000001C207.229 893.2650000000001 204.329 892.0660000000001 200.93200000000002 892.0660000000001C197.53500000000003 892.0660000000001 194.63600000000002 893.2650000000001 192.23200000000003 895.6630000000001C189.82900000000004 898.0600000000002 188.62700000000004 900.9530000000001 188.62700000000004 904.3420000000001C188.62700000000004 907.7310000000001 189.82900000000004 910.6240000000001 192.23200000000003 913.022C194.63600000000002 915.4190000000001 197.53600000000003 916.618 200.93200000000002 916.618C204.329 916.618 207.229 915.4190000000001 209.632 913.022ZM197.663 900.985C196.76600000000002 901.881 196.318 902.967 196.318 904.246C196.318 904.694 196.174 905.061 195.88500000000002 905.3489999999999C195.597 905.637 195.229 905.78 194.77900000000002 905.78C194.33100000000002 905.78 193.96200000000002 905.637 193.67400000000004 905.3489999999999C193.38500000000005 905.0609999999999 193.24100000000004 904.694 193.24100000000004 904.246C193.24100000000004 902.136 193.99400000000003 900.3299999999999 195.50100000000003 898.827C197.00700000000003 897.325 198.81700000000004 896.574 200.93200000000004 896.574C201.38100000000006 896.574 201.74900000000005 896.717 202.03800000000004 897.005C202.32700000000003 897.292 202.47100000000003 897.66 202.47100000000003 898.108C202.47100000000003 898.555 202.32700000000003 898.923 202.03700000000003 899.2109999999999C201.74900000000002 899.4989999999999 201.38000000000002 899.6429999999999 200.93200000000004 899.6429999999999C199.65000000000003 899.6429999999999 198.56100000000004 900.0899999999999 197.66300000000004 900.9849999999999Z " fill="#000000" fill-opacity="1" transform="matrix(1,0,0,1,-157,-864)"></path><path id="SvgjsPath1008" d="M242.198 866.147C240.997 864.9480000000001 239.54600000000002 864.3480000000001 237.848 864.3480000000001H164.01800000000003C162.31900000000002 864.3480000000001 160.86900000000003 864.9490000000001 159.66700000000003 866.147C158.46600000000004 867.346 157.86500000000004 868.792 157.86500000000004 870.4870000000001V931.8670000000001C157.86500000000004 933.561 158.46500000000003 935.008 159.66700000000003 936.2070000000001C160.86900000000003 937.4050000000001 162.31900000000002 938.0060000000001 164.01800000000003 938.0060000000001H237.84700000000004C239.54600000000005 938.0060000000001 240.99600000000004 937.4050000000001 242.19800000000004 936.2070000000001C243.39900000000003 935.0080000000002 244.00000000000003 933.5610000000001 244.00000000000003 931.8670000000001V870.4870000000001C244.00000000000003 868.7930000000001 243.39900000000003 867.3460000000001 242.19800000000004 866.147ZM170.17 867.418H188.62699999999998V873.556H170.17ZM164.018 931.867V925.7289999999999H237.848V931.867ZM182.475 904.342C182.475 899.259 184.278 894.919 187.882 891.322C191.488 887.726 195.83700000000002 885.928 200.93200000000002 885.928C206.02800000000002 885.928 210.37800000000001 887.726 213.98200000000003 891.322C217.58700000000002 894.919 219.39000000000001 899.259 219.39000000000001 904.342C219.39000000000001 909.425 217.58700000000002 913.765 213.98200000000003 917.361C210.37800000000001 920.958 206.02800000000002 922.756 200.93200000000002 922.756C195.83700000000002 922.756 191.48800000000003 920.958 187.882 917.361C184.27700000000002 913.765 182.475 909.425 182.475 904.342ZM237.848 882.763H164.01800000000003V876.625H194.973L198.049 870.487H237.848ZM209.632 913.022C212.036 910.624 213.238 907.731 213.238 904.3420000000001C213.238 900.9530000000001 212.036 898.0600000000001 209.632 895.6630000000001C207.229 893.2650000000001 204.329 892.0660000000001 200.93200000000002 892.0660000000001C197.53500000000003 892.0660000000001 194.63600000000002 893.2650000000001 192.23200000000003 895.6630000000001C189.82900000000004 898.0600000000002 188.62700000000004 900.9530000000001 188.62700000000004 904.3420000000001C188.62700000000004 907.7310000000001 189.82900000000004 910.6240000000001 192.23200000000003 913.022C194.63600000000002 915.4190000000001 197.53600000000003 916.618 200.93200000000002 916.618C204.329 916.618 207.229 915.4190000000001 209.632 913.022ZM197.663 900.985C196.76600000000002 901.881 196.318 902.967 196.318 904.246C196.318 904.694 196.174 905.061 195.88500000000002 905.3489999999999C195.597 905.637 195.229 905.78 194.77900000000002 905.78C194.33100000000002 905.78 193.96200000000002 905.637 193.67400000000004 905.3489999999999C193.38500000000005 905.0609999999999 193.24100000000004 904.694 193.24100000000004 904.246C193.24100000000004 902.136 193.99400000000003 900.3299999999999 195.50100000000003 898.827C197.00700000000003 897.325 198.81700000000004 896.574 200.93200000000004 896.574C201.38100000000006 896.574 201.74900000000005 896.717 202.03800000000004 897.005C202.32700000000003 897.292 202.47100000000003 897.66 202.47100000000003 898.108C202.47100000000003 898.555 202.32700000000003 898.923 202.03700000000003 899.2109999999999C201.74900000000002 899.4989999999999 201.38000000000002 899.6429999999999 200.93200000000004 899.6429999999999C199.65000000000003 899.6429999999999 198.56100000000004 900.0899999999999 197.66300000000004 900.9849999999999Z " fill="#54d154" fill-opacity="1" transform="matrix(1,0,0,1,-157,-864)"></path></svg>