<?xml version="1.0" encoding="UTF-8" standalone="no"?>
<!-- Created with Inkscape (http://www.inkscape.org/) -->

<svg
   xmlns:dc="http://purl.org/dc/elements/1.1/"
   xmlns:cc="http://creativecommons.org/ns#"
   xmlns:rdf="http://www.w3.org/1999/02/22-rdf-syntax-ns#"
   xmlns:svg="http://www.w3.org/2000/svg"
   xmlns="http://www.w3.org/2000/svg"
   xmlns:sodipodi="http://sodipodi.sourceforge.net/DTD/sodipodi-0.dtd"
   xmlns:inkscape="http://www.inkscape.org/namespaces/inkscape"
   version="1.1"
   id="svg2"
   width="86.989059"
   height="74"
   viewBox="0 0 86.989059 74"
   sodipodi:docname="case.svg"
   inkscape:version="0.92.1 r15371">
  <metadata
     id="metadata8">
    <rdf:RDF>
      <cc:Work
         rdf:about="">
        <dc:format>image/svg+xml</dc:format>
        <dc:type
           rdf:resource="http://purl.org/dc/dcmitype/StillImage" />
        <dc:title></dc:title>
      </cc:Work>
    </rdf:RDF>
  </metadata>
  <defs
     id="defs6" />
  <sodipodi:namedview
     pagecolor="#ffffff"
     bordercolor="#666666"
     borderopacity="1"
     objecttolerance="10"
     gridtolerance="10"
     guidetolerance="10"
     inkscape:pageopacity="0"
     inkscape:pageshadow="2"
     inkscape:window-width="945"
     inkscape:window-height="968"
     id="namedview4"
     showgrid="false"
     fit-margin-top="0"
     fit-margin-left="0"
     fit-margin-right="0"
     fit-margin-bottom="0"
     inkscape:zoom="1.6619718"
     inkscape:cx="40.175497"
     inkscape:cy="135.08475"
     inkscape:window-x="0"
     inkscape:window-y="0"
     inkscape:window-maximized="0"
     inkscape:current-layer="svg2" />
  <path
     style="fill:#55cf55"
     d="m 4.2504234,72.470521 c -1.201,-0.84122 -2.64862,-3.20372 -3.21693,-5.25 -1.11747,-4.023659 -1.42733,-20.059146 -0.43745,-22.638734 C 1.1142634,43.231327 3.5245134,43 17.076993,43 c 17.63157,0 16.2867,-0.549499 17.13211,7 0.27677,2.471582 0.38794,2.5 9.77995,2.5 9.39202,0 9.50319,-0.02842 9.77996,-2.5 0.85408,-7.626972 -0.51355,-7.081764 16.995444,-6.775264 l 15.7246,0.275264 0.27999,12.765462 c 0.2728,12.437629 0.21619,12.829269 -2.20454,15.249999 l -2.48454,2.48454 H 44.257013 c -32.32597,0 -38.1402996,-0.22229 -40.0065896,-1.52948 z M 38.370883,47.552647 c -1.31596,-3.42933 0.35491,-4.671799 5.85699,-4.355294 4.86456,0.279831 5.26118,0.491116 5.26118,2.802647 0,2.311531 -0.39662,2.522816 -5.26118,2.802647 -4.02926,0.231782 -5.40069,-0.06091 -5.85699,-1.25 z M 1.4345534,37.302637 C 8.2339858e-4,35.868913 -0.1865266,34.146783 0.2283534,26.215187 0.8973134,13.42591 1.6669434,12.673155 14.762253,12 l 9.7268,-0.5 0.32385,-4 c 0.58155,-7.183128 1.39311,-7.5 19.2087,-7.5 17.70763,0 17.94473,0.09198 18.91172,7.336545 L 63.489053,11.5 73.330997,12 c 13.13354,0.667223 13.65806,1.262632 13.65806,15.503795 0,8.453556 -0.28132,10.390179 -1.58179,10.889216 C 84.537287,38.726855 65.669433,39 43.478693,39 6.8631734,39 2.9749434,38.843029 1.4345534,37.302637 Z M 55.489053,9.5 c 0,-1.87054 -0.76057,-2.018237 -11.75,-2.281735 -10.90068,-0.261371 -11.75,-0.146924 -11.75,1.583333 0,1.025788 0.31391,2.178975 0.69757,2.562639 0.38367,0.383663 5.67117,0.571163 11.75,0.416666 10.29213,-0.26158 11.05243,-0.418484 11.05243,-2.280903 z"
     id="path18"
     inkscape:connector-curvature="0" />
</svg>
