<?xml version="1.0" encoding="UTF-8" standalone="no"?>
<svg
   xmlns:dc="http://purl.org/dc/elements/1.1/"
   xmlns:cc="http://creativecommons.org/ns#"
   xmlns:rdf="http://www.w3.org/1999/02/22-rdf-syntax-ns#"
   xmlns:svg="http://www.w3.org/2000/svg"
   xmlns="http://www.w3.org/2000/svg"
   viewBox="0 0 97 47"
   height="47"
   width="97"
   id="svg2"
   version="1.1">
  <metadata
     id="metadata8">
    <rdf:RDF>
      <cc:Work
         rdf:about="">
        <dc:format>image/svg+xml</dc:format>
        <dc:type
           rdf:resource="http://purl.org/dc/dcmitype/StillImage" />
        <dc:title></dc:title>
      </cc:Work>
    </rdf:RDF>
  </metadata>
  <defs
     id="defs6" />
  <path
     id="path74"
     d="m 60.834724,46.638139 -1.5,-0.56913 -2.28134,-2.07647 -2.28134,-2.07648 -4.21866,-7.28398 -4.21866,-7.283974 -0.5,-0.0098 -0.5,-0.0098 v 6.918604 6.9186 l -2.42431,2.57893 -2.42431,2.57894 h -10.45967 -10.45967 l -3.80975,-1.14143 -3.80976,-1.14143 -3.5852803,-2.9553 -3.58529,-2.9553 -2.18399,-4.15327 -2.18399003,-4.153273 -0.003,-6.5 -0.003,-6.5 1.83328003,-3.5 1.83327,-3.4999996 2.13303,-2.347318 2.13303,-2.347318 3.8806903,-1.989681 3.8807,-1.989681 7.3693,-0.55734002 7.36931,-0.557339 v 3.00997102 3.009971 l -6.99893,0.500771 -6.99893,0.50077 -4.03199,2.176293 -3.7632903,2.9823856 -1.73481,4.54252 -1.7348,4.54252 0.50782,4.505356 0.50781,4.505355 2.56711,3.365657 2.5671103,3.36565 3.45758,1.64073 3.45758,1.64073 h 9.39887 9.39887 l 1.2,-1.2 1.2,-1.2 V 23.123576 8.3235764 h 0.89398 0.89398 l 9.82426,16.0312936 9.82426,16.031299 1.53176,-0.29318 1.53176,-0.29318 0.5,-15.406732 0.5,-15.4067366 1,-0.310933 1,-0.310933 9.62182,15.7295506 9.62182,15.729554 h 1.87818 1.87818 l 0.27114,-19.750003 0.27114,-19.74999962 h 2.97886 2.97886 V 20.900499 41.477419 l -2.92308,2.92308 -2.92308,2.92308 h -1.62658 -1.62658 l -2.87529,-1.48687 -2.87529,-1.48687 -5.32505,-8.76313 -5.32505,-8.763133 -0.5,8.218383 -0.5,8.21839 -1.5,1.46581 -1.5,1.46581 -2.5,0.50765 -2.5,0.50765 z m -43.53756,-8.3783 -3.03756,-0.88335 -2.59181,-2.77646 -2.5918203,-2.77645 -1.19932,-3.753465 -1.19932,-3.753463 0.69914,-3.246537 0.69913,-3.246538 1.42811,-2.794223 1.4281103,-2.794222 2.7984,-1.414644 c 0,0 2.41247,-1.5761816 3.6045,-1.9520386 2.04294,-0.644158 3.60282,-0.960192 5.74163,-1.078492 l 7.35382,-0.406747 c 1.18391,-0.06548 0.22095,3.6904426 0.22095,3.6904426 l -0.31643,2.75 -6.14647,0.5 -6.14648,0.5 -2.08397,1.887288 -2.08396,1.887288 -0.60806,3.24123 -0.60806,3.241231 1.55812,3.013064 1.55811,3.013066 3.17961,1.10842 3.17961,1.10841 h 4.75488 4.75488 l 0.3459,-14.087643 0.34589,-14.0876486 2.80577,-2.412351 2.80576,-2.41235002 h 2.42846 2.42846 l 2.99031,2.75000002 2.99032,2.75 4.51802,7.9999996 4.51803,8 0.007,-7.826923 0.007,-7.8269226 2.92308,-2.923077 2.92307,-2.92307702 h 2.44207 2.44206 l 2.43965,1.91902502 2.43964,1.919026 4.94522,8.8184846 4.94521,8.818485 0.28447,-10.800607 0.28447,-10.80060562 2.71553,0.313096 2.71553,0.313096 V 19.573656 38.323659 l -0.89845,0.25 -0.89846,0.25 -8.93479,-14.500003 -8.9348,-14.4999996 -1.56854,-1.746469 -1.56854,-1.746469 -1.34821,1.118914 -1.34821,1.118913 V 23.946101 39.323659 h -0.84081 -0.84081 l -9.74119,-15.924479 -9.74118,-15.9244756 -1.29615,-0.497379 -1.29615,-0.497379 -1.12185,1.121855 -1.12186,1.121855 V 24.023656 39.323659 l -8.75,-0.0902 -8.75,-0.0902 z"
     style="fill:#000000" />
</svg>
